<svg width="256" height="256" viewBox="0 0 256 256" fill="none" xmlns="http://www.w3.org/2000/svg">
<path d="M36 36V120.57C50.74 115.5 128.07 100.12 128.07 100.12L36 142.72V168.38L100.75 132.59C100.12 133.26 36 190.76 36 190.76V220H66.22L133.64 139.84L88.63 220H105.79C105.79 219.8 132.02 166.28 132.02 166.28L124.3 220H220V36H36ZM174.53 91.89C174.33 96.81 173.4 164.68 173.4 164.68C173.4 164.68 157.58 105.64 157.38 105.43C157.38 105.43 86.81 167.86 81.51 172.62H81.31C81.31 172.62 153.93 85.04 154.15 84.62C154.36 84.4 143.92 60.14 143.92 60.14L164.1 74.06L184.87 48.66L178.31 75.32L206.53 64.74C206.53 64.74 181.75 85.84 174.53 91.89Z" fill="#0C489B"/>
</svg>
